<?xml version="1.0" ?><svg id="Layer_1" style="enable-background:new 0 0 512 512;" version="1.1" viewBox="0 0 512 512" xml:space="preserve" xmlns="http://www.w3.org/2000/svg" xmlns:xlink="http://www.w3.org/1999/xlink"><style type="text/css">
	.st0{fill:#D10E2F;}
	.st1{fill:#1C2666;}
	.st2{fill:#FFFFFF;}
</style><g><rect class="st0" height="298.7" width="512" y="106.7"/><rect class="st1" height="149.3" width="224" y="106.7"/><path class="st2" d="M126.9,181.3l-14.9,56l-14.9-56l14.9-56 M112,196.3l56-14.9l-56-14.9l-56,14.9"/><path class="st2" d="M124.9,188.8l-40.9,41l15.1-56l40.9-41 M104.5,194.3l56,15.1l-41-40.9l-56-15.1"/><path class="st2" d="M119.5,194.3l-56,15.1l41-40.9l56-15.1 M99.1,188.8l40.9,41l-15.1-56l-40.9-41"/><path class="st1" d="M112,149.6c17.5,0,31.7,14.2,31.7,31.7c0,17.5-14.2,31.7-31.7,31.7c-17.5,0-31.7-14.2-31.7-31.7   C80.3,163.8,94.5,149.6,112,149.6"/><path class="st2" d="M112,153.3c15.5,0,28,12.5,28,28c0,15.5-12.5,28-28,28c-15.5,0-28-12.5-28-28C84,165.9,96.5,153.3,112,153.3"/></g></svg>